<svg xmlns="http://www.w3.org/2000/svg" viewBox="0 0 927.35 129.9"><defs><style>.cls-1{fill:#231f20;}</style></defs><title>Asset 4</title><g id="Layer_2" data-name="Layer 2"><g id="Layer_1-2" data-name="Layer 1"><g id="Layer_1-2-2" data-name="Layer 1-2"><path class="cls-1" d="M589.6,0a66.25,66.25,0,0,1,13.76,1.33A29.8,29.8,0,0,1,614,5.69a20.56,20.56,0,0,1,6.88,8.06,28.44,28.44,0,0,1,2.44,12.43q0,8-3.63,13.31A26.21,26.21,0,0,1,609,48.22q9.76,2.82,14.57,9.84A29.25,29.25,0,0,1,628.36,75a29.08,29.08,0,0,1-3.11,13.83,26.91,26.91,0,0,1-8.35,9.54,36.9,36.9,0,0,1-12,5.47,53.76,53.76,0,0,1-13.83,1.78H539.91V0Zm-3,42.74a16.64,16.64,0,0,0,10.2-3q4-3,4-9.62a12.27,12.27,0,0,0-1.33-6.06,9.93,9.93,0,0,0-3.55-3.7,15,15,0,0,0-5.1-1.85,34.48,34.48,0,0,0-6-.52H563.13v24.7ZM588,87.57a30.92,30.92,0,0,0,6.5-.67,15.89,15.89,0,0,0,5.5-2.22,11.19,11.19,0,0,0,3.77-4.22,14.39,14.39,0,0,0,1.41-6.8q0-8.13-4.59-11.61c-3.06-2.31-7.1-3.48-12.13-3.48H563.13v29Z"/><path class="cls-1" d="M661.93,85.05q4.79,4.65,13.78,4.64a18.9,18.9,0,0,0,11.08-3.22c3.09-2.14,5-4.42,5.69-6.81H711.2q-4.49,13.92-13.78,19.91t-22.46,6a44,44,0,0,1-16.48-2.92,33.84,33.84,0,0,1-12.42-8.31,37.37,37.37,0,0,1-7.87-12.87A47.15,47.15,0,0,1,635.42,65a45.16,45.16,0,0,1,2.85-16.18,37.38,37.38,0,0,1,20.59-21.56A40.1,40.1,0,0,1,675,24.09a36.85,36.85,0,0,1,17.22,3.82,34.39,34.39,0,0,1,12,10.26,42.19,42.19,0,0,1,6.82,14.68,54.59,54.59,0,0,1,1.5,17.22H656.68Q657.15,80.42,661.93,85.05Zm24-40.74q-3.82-4.19-11.61-4.19a18.53,18.53,0,0,0-8.46,1.72,16.17,16.17,0,0,0-5.4,4.27,15.87,15.87,0,0,0-2.84,5.39,25.33,25.33,0,0,0-1,5.09h34.61q-1.44-8.07-5.23-12.28Z"/><path class="cls-1" d="M740.46,24.09V41h.31a26.64,26.64,0,0,1,4.14-6.83,27.13,27.13,0,0,1,6-5.36,29.2,29.2,0,0,1,7.21-3.46,26.51,26.51,0,0,1,8-1.23,17,17,0,0,1,4.76.77V45.11c-1-.2-2.25-.38-3.68-.53a38.15,38.15,0,0,0-4.14-.23,23.23,23.23,0,0,0-10.13,2,17.53,17.53,0,0,0-6.68,5.45,21.75,21.75,0,0,0-3.6,8.05,43.7,43.7,0,0,0-1.07,10v35.74H719.75V24.09Z"/><path class="cls-1" d="M802.94,0V105.56H781.31V0Z"/><path class="cls-1" d="M817.07,17.81V0H838.7V17.81Zm21.63,6.28v81.47H817.07V24.09Z"/><path class="cls-1" d="M873.65,24.09v13.2h.47a24.92,24.92,0,0,1,10.73-10,31.18,31.18,0,0,1,13.51-3.15q8.73,0,14.34,2.38a21.37,21.37,0,0,1,8.83,6.6,25.62,25.62,0,0,1,4.52,10.28,63.74,63.74,0,0,1,1.3,13.42v48.79H905.57V60.76q0-9.81-3.07-14.65t-10.9-4.83q-8.9,0-12.88,5.29t-4,17.42v41.57H852.94V24.09Z"/><path class="cls-1" d="M191.09,40.38a14.94,14.94,0,0,0-8.53,2.32,18.6,18.6,0,0,0-5.61,6,25.82,25.82,0,0,0-3.07,8.08,43.6,43.6,0,0,0-.9,8.75,42.09,42.09,0,0,0,.9,8.53,26.24,26.24,0,0,0,2.92,7.86,16.64,16.64,0,0,0,5.46,5.76,15,15,0,0,0,8.38,2.25q7.63,0,11.75-4.27a20.16,20.16,0,0,0,5.17-11.45h20.5q-2.1,15.42-12,23.5t-25.3,8.08a41.94,41.94,0,0,1-15.93-2.92,35.15,35.15,0,0,1-12.35-8.15,36.89,36.89,0,0,1-7.93-12.5,43.15,43.15,0,0,1-2.85-15.94,51.74,51.74,0,0,1,2.62-16.69A37.82,37.82,0,0,1,162,36.27a35.34,35.34,0,0,1,12.42-8.75,42.21,42.21,0,0,1,16.76-3.14,49,49,0,0,1,13.25,1.79,35.39,35.39,0,0,1,11.37,5.47A28.2,28.2,0,0,1,227.61,53.7h-20.8Q204.71,40.38,191.09,40.38Z"/><path class="cls-1" d="M289.09,48.37a35.4,35.4,0,0,1,20.66-21.12,48.16,48.16,0,0,1,33,0,35.31,35.31,0,0,1,20.74,21.12,47.67,47.67,0,0,1,2.84,16.85A47,47,0,0,1,363.52,82a36.27,36.27,0,0,1-8.09,12.8,35,35,0,0,1-12.65,8.2,49.44,49.44,0,0,1-33,0,35.34,35.34,0,0,1-12.58-8.17A36.23,36.23,0,0,1,289.09,82a46.77,46.77,0,0,1-2.85-16.77A47.51,47.51,0,0,1,289.09,48.37Zm19.32,25.91a23.83,23.83,0,0,0,3.07,7.93,16.24,16.24,0,0,0,5.76,5.62,17.54,17.54,0,0,0,9,2.1,18,18,0,0,0,9.06-2.1,16.22,16.22,0,0,0,5.84-5.62,23.83,23.83,0,0,0,3.07-7.93,45.86,45.86,0,0,0,.9-9.06,46.74,46.74,0,0,0-.9-9.14,23.46,23.46,0,0,0-3.07-7.94,17.13,17.13,0,0,0-5.84-5.61,17.58,17.58,0,0,0-9.06-2.18,17.15,17.15,0,0,0-9,2.18,17.36,17.36,0,0,0-5.76,5.61,23.06,23.06,0,0,0-3.07,7.94,46.74,46.74,0,0,0-.9,9.14A45.86,45.86,0,0,0,308.41,74.28Z"/><path class="cls-1" d="M488.5,24.45,470.9,76.34h-.32L452.35,24.45H428.83L457,96.75a13.36,13.36,0,0,1,.93,5,11.07,11.07,0,0,1-2.1,6.55,8.57,8.57,0,0,1-6.46,3.42h-17V129.9h17.77q11.3,0,17.65-4.2t10-14l33.66-87.25Z"/><path class="cls-1" d="M282.76,40.22V24.39H266.55V.24H244.43V24.39H231.61V40.22h12.82V86.71a20.68,20.68,0,0,0,2,9.82,14.42,14.42,0,0,0,5.54,5.76,22.85,22.85,0,0,0,8.1,2.73,63.77,63.77,0,0,0,9.56.69h13.11v-16H275.9q-5.61,0-7.48-1.87c-1.24-1.24-1.87-3.74-1.87-7.47V40.22Z"/><path class="cls-1" d="M417.81,24.45h0a25.25,25.25,0,0,0-12.53,3.07,26.47,26.47,0,0,0-9.38,9.54h-.31V24.45H373.35v81.31h24V67.94q0-11.82,5.36-18t15.44-6.22a43.41,43.41,0,0,1,7.18.84Z"/><path class="cls-1" d="M74.4,50.26a24.7,24.7,0,0,1,3.75-12.43,25.41,25.41,0,0,1,8.39-7.95A36.7,36.7,0,0,1,98,25.62a65.45,65.45,0,0,1,12.8-1.28,88.45,88.45,0,0,1,11.84.83,36.31,36.31,0,0,1,10.93,3.22,21.7,21.7,0,0,1,8.09,6.66q3.15,4.29,3.15,11.32V86.66a79.42,79.42,0,0,0,.6,10,18.36,18.36,0,0,0,2.09,7.2H125.94a28.82,28.82,0,0,1-1-3.67,30.5,30.5,0,0,1-.52-3.82,27.65,27.65,0,0,1-12,7.33,47.65,47.65,0,0,1-14.08,2.1A37.24,37.24,0,0,1,88,104.48a23.32,23.32,0,0,1-8.39-4.19A19.54,19.54,0,0,1,74,93.1a24.26,24.26,0,0,1-2-10.33A22.62,22.62,0,0,1,74.33,71.9a19.45,19.45,0,0,1,6-6.81,26.8,26.8,0,0,1,8.39-3.82,93.38,93.38,0,0,1,9.51-2c3.2-.49,6.34-.89,9.44-1.19a56,56,0,0,0,8.24-1.35,14.16,14.16,0,0,0,5.69-2.62,5.76,5.76,0,0,0,2-5,11.38,11.38,0,0,0-1.12-5.47,8.3,8.3,0,0,0-3-3.14,11.86,11.86,0,0,0-4.35-1.5,36.27,36.27,0,0,0-5.31-.37q-6.3,0-9.89,2.69t-4.19,9ZM123.54,66a9.32,9.32,0,0,1-3.37,1.87A31.24,31.24,0,0,1,115.82,69c-1.55.3-3.17.55-4.87.75s-3.39.45-5.09.75a38.39,38.39,0,0,0-4.72,1.2,14.29,14.29,0,0,0-4,2,9.74,9.74,0,0,0-2.77,3.22,10.41,10.41,0,0,0-1,4.94,10,10,0,0,0,1,4.8,8,8,0,0,0,2.84,3.07,12.15,12.15,0,0,0,4.2,1.58,26.38,26.38,0,0,0,4.94.44c4.2,0,7.44-.69,9.74-2.1a14,14,0,0,0,5.09-5,15.92,15.92,0,0,0,2-5.92,40.33,40.33,0,0,0,.38-4.79Z"/><path class="cls-1" d="M72,.32V19.84H23.21V50.25H64.93v18H23.21v37.59H0V.32Z"/></g></g></g></svg>